# File created by Blade
# Date/Time:  Mon Sep 22 19:00:17 2014
# Frame Rate: 120.000 fps
#------------------------------------------------------
:FULLY-SPECIFIED
:DEGREES
3017
root -0.665628 32.793317 -3.426026 42.466241 -1.443525 0.805194
Spine -49.800956 -21.703517 17.739047
Head 8.866574 0.117042 -5.795246
LeftShoulder -18.541862 42.851508 3.316085
LeftArm 65.324582 34.637964 -57.085358
LeftForeArm 10.307306 0.000000 9.118889
LeftHand -19.261463 0.000000 -4.804761
LeftHandThumb1 -26.253704 0.000000 33.147579
RightShoulder -36.980450 -29.182010 -40.272330
RightArm -267.437979 80.481112 -257.356195
RightForeArm 70.050063 -0.000000 96.962737
RightHand 18.048542 -0.000000 0.541298
RightHandThumb1 -24.326973 -0.000000 -32.862282
LeftUpLeg -35.812019 8.423352 -3.940245
LeftLeg -1.099142 -0.000000 0.000000
LeftFoot -2.038436 -1.468585 -4.125951
LeftToeBase 1.917593 -0.000000 -0.000000
RightUpLeg -37.339435 -7.592415 3.073757
RightLeg -0.776152 -0.000000 0.000000
RightFoot -7.317241 -5.909098 19.900881
RightToeBase 15.996460 -0.000000 -0.000000
3018
root -0.660922 32.793363 -3.428446 42.483680 -1.458879 0.805982
Spine -49.803808 -21.685065 17.720530
Head 8.510813 0.012855 -5.549749
LeftShoulder -18.506660 42.834667 3.321015
LeftArm 65.343628 34.657917 -57.037129
LeftForeArm 10.297524 -0.000000 9.098910
LeftHand -19.255775 -0.000000 -4.872210
LeftHandThumb1 -26.253704 0.000000 33.147579
RightShoulder -36.892008 -29.178092 -40.377235
RightArm -269.981164 80.407202 -260.418116
RightForeArm 68.727860 0.000000 95.073165
RightHand 18.149012 0.000000 -0.133304
RightHandThumb1 -24.326973 -0.000000 -32.862282
LeftUpLeg -35.832083 8.432862 -3.963357
LeftLeg -1.101456 -0.000000 0.000000
LeftFoot -2.039365 -1.482796 -4.129578
LeftToeBase 1.940115 -0.000000 -0.000000
RightUpLeg -37.327552 -7.523872 3.006531
RightLeg -0.833803 -0.000000 0.000000
RightFoot -7.313238 -5.949000 19.982329
RightToeBase 15.973336 -0.000000 -0.000000
3019
root -0.653641 32.793216 -3.431391 42.497169 -1.457166 0.817499
Spine -49.802114 -21.680073 17.687045
Head 8.134401 -0.188357 -5.353968
LeftShoulder -18.444982 42.832553 3.350810
LeftArm 65.403129 34.683805 -56.962730
LeftForeArm 10.259278 0.000000 9.058780
LeftHand -19.240045 0.000000 -4.869957
LeftHandThumb1 -26.253704 0.000000 33.147579
RightShoulder -36.751286 -29.036145 -40.520835
RightArm -273.110047 80.359880 -264.184541
RightForeArm 67.669950 -0.000000 93.062424
RightHand 18.263507 0.000000 -0.617760
RightHandThumb1 -24.326973 -0.000000 -32.862282
LeftUpLeg -35.858906 8.424377 -3.991148
LeftLeg -1.086877 -0.000000 0.000000
LeftFoot -2.039744 -1.488725 -4.129062
LeftToeBase 1.938892 -0.000000 -0.000000
RightUpLeg -37.361741 -7.582130 3.032991
RightLeg -0.818377 -0.000000 0.000000
RightFoot -7.307243 -5.953557 19.889055
RightToeBase 15.989083 -0.000000 -0.000000
3020
root -0.647581 32.792429 -3.432790 42.510013 -1.456361 0.820883
Spine -49.800424 -21.652266 17.665502
Head 7.755522 -0.341685 -5.159159
LeftShoulder -18.390851 42.829438 3.364652
LeftArm 65.450935 34.705810 -56.883446
LeftForeArm 10.248841 -0.000000 9.045189
LeftHand -19.262369 -0.000000 -4.916054
LeftHandThumb1 -26.253704 0.000000 33.147579
RightShoulder -36.614610 -28.850798 -40.736636
RightArm -276.580619 80.248084 -268.324836
RightForeArm 66.973656 -0.000000 90.947521
RightHand 18.432754 0.000000 -0.798266
RightHandThumb1 -24.326973 -0.000000 -32.862282
LeftUpLeg -35.875461 8.403670 -3.996293
LeftLeg -1.079987 -0.000000 0.000000
LeftFoot -2.061095 -1.475190 -4.110383
LeftToeBase 1.944367 -0.000000 -0.000000
RightUpLeg -37.383862 -7.614670 3.043161
RightLeg -0.813749 -0.000000 0.000000
RightFoot -7.290967 -5.916692 19.906784
RightToeBase 15.983185 -0.000000 -0.000000
3021
root -0.642129 32.792458 -3.436476 42.530276 -1.459270 0.824485
Spine -49.813861 -21.650768 17.648381
Head 7.435862 -0.425562 -4.863276
LeftShoulder -18.363267 42.841004 3.383013
LeftArm 65.520484 34.722619 -56.827373
LeftForeArm 10.225249 0.000000 8.981870
LeftHand -19.274697 -0.000000 -4.894450
LeftHandThumb1 -26.253704 0.000000 33.147579
RightShoulder -36.422965 -28.666422 -40.926579
RightArm -279.699423 80.121003 -272.157735
RightForeArm 66.680146 -0.000000 88.733237
RightHand 18.506466 -0.000000 -0.985913
RightHandThumb1 -24.326973 -0.000000 -32.862282
LeftUpLeg -35.906439 8.378024 -3.997027
LeftLeg -1.065798 -0.000000 0.000000
LeftFoot -2.058185 -1.464026 -4.094706
LeftToeBase 1.916863 -0.000000 -0.000000
RightUpLeg -37.412906 -7.610995 3.027820
RightLeg -0.810411 -0.000000 0.000000
RightFoot -7.303946 -5.932096 19.913361
RightToeBase 16.016590 -0.000000 -0.000000
3022
root -0.637377 32.791963 -3.439289 42.547709 -1.474582 0.820314
Spine -49.820801 -21.630897 17.624906
Head 7.113002 -0.572273 -4.650106
LeftShoulder -18.339080 42.848277 3.408307
LeftArm 65.571368 34.747930 -56.779946
LeftForeArm 10.194763 -0.000000 8.949586
LeftHand -19.277780 -0.000000 -4.851737
LeftHandThumb1 -26.253704 0.000000 33.147579
RightShoulder -36.220687 -28.433483 -41.135299
RightArm -282.655643 79.938776 -275.880925
RightForeArm 66.534327 -0.000000 86.458491
RightHand 18.655367 -0.000000 -0.977714
RightHandThumb1 -24.326973 -0.000000 -32.862282
LeftUpLeg -35.929240 8.371836 -4.001655
LeftLeg -1.058917 -0.000000 0.000000
LeftFoot -2.080930 -1.456154 -4.120612
LeftToeBase 1.968956 -0.000000 -0.000000
RightUpLeg -37.441971 -7.602820 3.017137
RightLeg -0.800865 -0.000000 0.000000
RightFoot -7.308644 -5.926467 19.935703
RightToeBase 16.023402 -0.000000 -0.000000
3023
root -0.632753 32.791430 -3.441650 42.559505 -1.476525 0.818090
Spine -49.828406 -21.607922 17.603324
Head 6.814510 -0.752511 -4.463965
LeftShoulder -18.278579 42.851244 3.455247
LeftArm 65.583718 34.760526 -56.780475
LeftForeArm 10.177394 0.000000 8.905616
LeftHand -19.248202 -0.000000 -4.832356
LeftHandThumb1 -26.253704 0.000000 33.147579
RightShoulder -36.058194 -28.258158 -41.351071
RightArm -285.021867 79.685102 -279.017719
RightForeArm 66.460241 -0.000000 84.099937
RightHand 18.766736 0.000000 -0.974929
RightHandThumb1 -24.326973 -0.000000 -32.862282
LeftUpLeg -35.942749 8.343918 -3.988974
LeftLeg -1.056188 -0.000000 0.000000
LeftFoot -2.089347 -1.434520 -4.100864
LeftToeBase 1.925565 -0.000000 -0.000000
RightUpLeg -37.462621 -7.619060 3.025389
RightLeg -0.798766 -0.000000 0.000000
RightFoot -7.295972 -5.917073 19.915207
RightToeBase 16.039338 -0.000000 -0.000000
